<svg xmlns="http://www.w3.org/2000/svg" xmlns:xlink="http://www.w3.org/1999/xlink" width="1546" height="633" viewBox="0 0 1546 633" fill="none">
<g id="Repeat group 2_inner">
<path d="M1021.81 257.367C1021.81 208.14 1007.22 160.019 979.868 119.089C952.519 78.1583 913.647 46.2568 868.168 27.4186C822.688 8.58039 772.644 3.65145 724.363 13.2551C676.082 22.8587 631.733 46.5636 596.925 81.3721C562.116 116.181 538.411 160.529 528.808 208.81C519.204 257.091 524.133 307.135 542.971 352.615C561.81 398.094 593.711 436.966 634.641 464.315C675.572 491.664 723.693 506.262 772.92 506.262V503.773C724.185 503.773 676.545 489.321 636.024 462.246C595.503 435.17 563.921 396.687 545.271 351.662C526.621 306.638 521.741 257.094 531.249 209.296C540.757 161.498 564.224 117.593 598.685 83.1321C633.145 48.6717 677.051 25.2038 724.848 15.6962C772.646 6.1886 822.19 11.0682 867.215 29.7181C912.24 48.3679 950.723 79.9504 977.798 120.472C1004.87 160.993 1019.33 208.633 1019.33 257.367H1021.81Z" fill="url(#paint0_linear_11_1615)"/>
</g>







































<defs>
<linearGradient id="paint0_linear_11_1615" x1="772.92" y1="-13.0639" x2="773.361" y2="470.051" gradientUnits="userSpaceOnUse">
<stop stop-color="#1165EF"/>
<stop offset="1" stop-color="#E32D9C" stop-opacity="0"/>
</linearGradient>
</defs>
</svg>